<svg version="1.1" xmlns="http://www.w3.org/2000/svg" viewBox="0 0 697.4375 573.6666531032986" width="697.4375" height="573.6666531032986">
  <!-- svg-source:excalidraw -->
  
  <defs>
    <style class="style-fonts">
      @font-face {
        font-family: "Virgil";
        src: url("https://excalidraw.com/Virgil.woff2");
      }
      @font-face {
        font-family: "Cascadia";
        src: url("https://excalidraw.com/Cascadia.woff2");
      }
    </style>
    
  </defs>
  <rect x="0" y="0" width="697.4375" height="573.6666531032986" fill="#f8f9fa"></rect><g stroke-linecap="round" transform="translate(230.52775065104186 42.22222222222234) rotate(0 120.55555555555534 139.44444444444426)"><path d="M-0.42 -0.67 C89.48 0.27, 182.42 1.26, 241.86 -1.51 M-0.29 -0.62 C76.57 1.81, 154.06 1.55, 241.52 -0.01 M241.12 -0.78 C242.09 109.71, 240.76 216.95, 240.37 279.81 M241.11 -0.31 C241.31 82.27, 241.13 165.96, 241.65 279.23 M240.2 279.92 C169.86 276.93, 100.26 279.41, 0.03 279.04 M240.31 278.31 C180.49 278.94, 119.45 278.81, -0.19 278.16 M-1.23 277.71 C-1.72 204.92, -1.91 130.81, -1.14 -0.92 M-0.11 279.18 C-0.53 202.53, -1.16 126.33, -0.66 0.14" stroke="#000000" stroke-width="1" fill="none"></path></g><g transform="translate(290.5277506510419 10) rotate(0 55.82291793823242 12.5)"><text x="0" y="0" font-family="Virgil, Segoe UI Emoji" font-size="20px" fill="#000000" text-anchor="start" style="white-space: pre;" direction="ltr" dominant-baseline="text-before-edge">_KTHREAD</text></g><g transform="translate(288.75000000000006 184.22220865885427) rotate(0 65.54166412353516 12.5)"><text x="0" y="0" font-family="Virgil, Segoe UI Emoji" font-size="20px" fill="#000000" text-anchor="start" style="white-space: pre;" direction="ltr" dominant-baseline="text-before-edge">_KPROCESS*</text></g><g stroke-linecap="round" transform="translate(262.08333333333326 139.77776421440976) rotate(0 88.88888888888889 68.33333333333331)"><path d="M0.43 0.67 C39.39 1.41, 74.15 -0.24, 177.65 -0.3 M0.78 -0.13 C68.05 0.77, 136.1 -0.43, 177.45 0.02 M179.28 0.07 C176.77 52.33, 178.6 100.99, 178.27 136.97 M178.19 0.69 C175.73 49.86, 175.95 98.01, 178.04 136.32 M177.37 134.69 C138.37 138.04, 96.1 136.27, 0.47 136.04 M177.11 137.65 C111.37 135.87, 46.43 134.9, -0.84 136.04 M0.2 137.42 C1.07 93.73, -0.64 54.21, -0.94 1.99 M0.91 137.38 C0.15 88.91, 0.31 40.34, 0.92 -0.06" stroke="#000000" stroke-width="1" fill="none"></path></g><g transform="translate(273.1944444444445 109.77776421440973) rotate(0 77.72916412353516 12.5)"><text x="0" y="0" font-family="Virgil, Segoe UI Emoji" font-size="20px" fill="#000000" text-anchor="start" style="white-space: pre;" direction="ltr" dominant-baseline="text-before-edge">_KAPC_STATE</text></g><g stroke-linecap="round" transform="translate(304.30555555555554 400.6666531032986) rotate(0 49.5 80)"><path d="M1.97 -1.95 C32.16 -1.51, 64.11 -0.12, 98.51 -0.59 M0.14 0.91 C27.66 0.79, 56.38 -0.9, 98.72 0.09 M97.45 -1.42 C98.12 56.78, 99.17 113.7, 99.57 160.73 M99.22 0.98 C100.52 49.29, 99.51 99.47, 98.82 159.34 M100.31 160.76 C76.58 160.69, 52.9 158.98, 1.76 158.05 M98.24 160.43 C71.12 160.67, 44.02 161.12, -0.38 160.98 M-0.83 160.22 C1.51 125.71, 0.71 89.45, 0.3 -0.7 M0.53 160.19 C-1.67 125.47, -2.47 92.33, 0.38 -0.68" stroke="#000000" stroke-width="1" fill="none"></path></g><g transform="translate(293 372.6666531032986) rotate(0 61 12.5)"><text x="0" y="0" font-family="Virgil, Segoe UI Emoji" font-size="20px" fill="#000000" text-anchor="start" style="white-space: pre;" direction="ltr" dominant-baseline="text-before-edge">_EPROCESS</text></g><g stroke-linecap="round"><g transform="translate(427.55514469530203 184.14255099297506) rotate(0 37.67608762082676 120.70487018145901)"><path d="M0.85 0.95 C15.06 17.44, 87.26 58.82, 85.54 98.83 C83.82 138.83, 6.53 217.51, -9.49 241 M-0.16 0.41 C13.82 17.12, 86.03 60.71, 84.35 100.46 C82.67 140.21, 5.65 215.57, -10.22 238.9" stroke="#000000" stroke-width="1" fill="none"></path></g><g transform="translate(427.55514469530203 184.14255099297506) rotate(0 37.67608762082676 120.70487018145901)"><path d="M1.47 209.89 C-3.13 220.11, -5.99 227.57, -11.52 239.27 M-0.65 211.39 C-3.2 218.71, -6.22 227.15, -10.71 238.27" stroke="#000000" stroke-width="1" fill="none"></path></g><g transform="translate(427.55514469530203 184.14255099297506) rotate(0 37.67608762082676 120.70487018145901)"><path d="M17.26 222.99 C7.49 229.02, -0.55 232.18, -11.52 239.27 M15.15 224.49 C8.13 228.08, 0.6 232.77, -10.71 238.27" stroke="#000000" stroke-width="1" fill="none"></path></g></g><mask></mask><g transform="translate(340 451.6666531032986) rotate(0 10.552083015441895 12.5)"><text x="0" y="0" font-family="Virgil, Segoe UI Emoji" font-size="20px" fill="#000000" text-anchor="start" style="white-space: pre;" direction="ltr" dominant-baseline="text-before-edge">fd</text></g><g transform="translate(344 491.6666531032986) rotate(0 9.958333015441895 12.5)"><text x="0" y="0" font-family="Virgil, Segoe UI Emoji" font-size="20px" fill="#000000" text-anchor="start" style="white-space: pre;" direction="ltr" dominant-baseline="text-before-edge">bk</text></g><g stroke-linecap="round" transform="translate(504.30555555555554 403.6666531032986) rotate(0 49.5 80)"><path d="M0.94 0.14 C33.55 -1.08, 65.02 1.28, 99.25 -1.86 M0.45 -0.56 C37.7 0.51, 74.86 -0.25, 98.68 0.36 M98.98 1.24 C100.64 39.74, 98.78 82.14, 97.16 161.36 M99.63 0.89 C98.03 64.93, 97.19 127.82, 98.78 160.35 M99.26 159.1 C62.85 158.12, 29.18 158.06, 1.82 159.28 M99.34 160.03 C69.79 158.41, 40.77 159.81, -0.09 159.6 M1.75 158.19 C0.72 95.65, -1.75 34.46, 1.83 0.32 M-0.96 160.92 C-0.97 118.94, -0.7 78.85, -0.78 -0.57" stroke="#000000" stroke-width="1" fill="none"></path></g><g transform="translate(493 375.6666531032986) rotate(0 61 12.5)"><text x="0" y="0" font-family="Virgil, Segoe UI Emoji" font-size="20px" fill="#000000" text-anchor="start" style="white-space: pre;" direction="ltr" dominant-baseline="text-before-edge">_EPROCESS</text></g><g transform="translate(540 454.6666531032986) rotate(0 10.552083015441895 12.5)"><text x="0" y="0" font-family="Virgil, Segoe UI Emoji" font-size="20px" fill="#000000" text-anchor="start" style="white-space: pre;" direction="ltr" dominant-baseline="text-before-edge">fd</text></g><g transform="translate(544 494.6666531032986) rotate(0 9.958333015441895 12.5)"><text x="0" y="0" font-family="Virgil, Segoe UI Emoji" font-size="20px" fill="#000000" text-anchor="start" style="white-space: pre;" direction="ltr" dominant-baseline="text-before-edge">bk</text></g><g stroke-linecap="round" transform="translate(116.30555555555566 401.6666531032986) rotate(0 49.5 80)"><path d="M1.21 -0.63 C26.02 0.28, 52.76 -0.87, 100.07 1.92 M0.37 0.24 C31.08 -0.14, 63.05 -0.26, 98.33 0.81 M99.07 0.99 C97.32 34.61, 97.54 72.31, 100.69 161.79 M98.08 0.73 C99.37 35.12, 100.21 71.26, 98.65 159.74 M98.89 159.12 C74 160.33, 47.89 159.05, 1.59 159.76 M98.39 160.53 C77.75 161.29, 55.86 161.16, -0.5 159.41 M-0.42 158.4 C0.27 114.86, 2.79 67.78, -0.59 -0.35 M0.17 160.84 C-2.1 107.98, -1.87 57.22, -0.86 -0.04" stroke="#000000" stroke-width="1" fill="none"></path></g><g transform="translate(105 373.6666531032986) rotate(0 61 12.5)"><text x="0" y="0" font-family="Virgil, Segoe UI Emoji" font-size="20px" fill="#000000" text-anchor="start" style="white-space: pre;" direction="ltr" dominant-baseline="text-before-edge">_EPROCESS</text></g><g transform="translate(152 452.6666531032986) rotate(0 10.552083015441895 12.5)"><text x="0" y="0" font-family="Virgil, Segoe UI Emoji" font-size="20px" fill="#000000" text-anchor="start" style="white-space: pre;" direction="ltr" dominant-baseline="text-before-edge">fd</text></g><g transform="translate(156 492.6666531032986) rotate(0 9.958333015441895 12.5)"><text x="0" y="0" font-family="Virgil, Segoe UI Emoji" font-size="20px" fill="#000000" text-anchor="start" style="white-space: pre;" direction="ltr" dominant-baseline="text-before-edge">bk</text></g><g stroke-linecap="round"><g transform="translate(366 461.6666531032986) rotate(0 65.4342264274787 -1.6263243053108454)"><path d="M1.16 0.16 C22.81 -0.37, 108.98 -2.84, 130.56 -3.42 M0.31 -0.8 C21.79 -1.14, 108.25 -1.88, 129.9 -2.1" stroke="#000000" stroke-width="1" fill="none"></path></g><g transform="translate(366 461.6666531032986) rotate(0 65.4342264274787 -1.6263243053108454)"><path d="M102.08 9.35 C111.15 5.47, 121.41 0.84, 131.2 -2.33 M101.51 8.1 C108.3 6.29, 115.7 3.73, 129.44 -1.24" stroke="#000000" stroke-width="1" fill="none"></path></g><g transform="translate(366 461.6666531032986) rotate(0 65.4342264274787 -1.6263243053108454)"><path d="M101.89 -11.17 C110.99 -7.73, 121.31 -5.04, 131.2 -2.33 M101.32 -12.42 C108.13 -9.52, 115.57 -7.36, 129.44 -1.24" stroke="#000000" stroke-width="1" fill="none"></path></g></g><mask></mask><g stroke-linecap="round"><g transform="translate(336 503.6666531032986) rotate(0 -51.395401130216186 -0.5637110088020734)"><path d="M0.91 0.81 C-16.12 0.62, -85.6 -1.33, -103.18 -1.94 M-0.07 0.19 C-17.09 0.28, -86.1 -0.01, -103.7 -0.36" stroke="#000000" stroke-width="1" fill="none"></path></g><g transform="translate(336 503.6666531032986) rotate(0 -51.395401130216186 -0.5637110088020734)"><path d="M-74.05 -8.95 C-81.42 -8.98, -88.98 -5.44, -103.72 0.89 M-75.81 -10.76 C-82.87 -6.81, -89.51 -5.16, -103.49 -0.39" stroke="#000000" stroke-width="1" fill="none"></path></g><g transform="translate(336 503.6666531032986) rotate(0 -51.395401130216186 -0.5637110088020734)"><path d="M-74.28 11.57 C-81.46 7.14, -88.97 6.28, -103.72 0.89 M-76.03 9.76 C-83.21 8.52, -89.79 4.98, -103.49 -0.39" stroke="#000000" stroke-width="1" fill="none"></path></g></g><mask></mask><g stroke-linecap="round"><g transform="translate(535 509.6666531032986) rotate(0 -60.613521718280424 -1.156863112701103)"><path d="M-0.45 -1.09 C-20.84 -1.53, -102.62 -2.84, -122.74 -3.27 M1.51 0.96 C-18.45 0.75, -99.92 -1.27, -120.41 -1.88" stroke="#000000" stroke-width="1" fill="none"></path></g><g transform="translate(535 509.6666531032986) rotate(0 -60.613521718280424 -1.156863112701103)"><path d="M-93.77 -12.61 C-100 -7.55, -108.18 -7.01, -118.7 -3.23 M-92.79 -11.62 C-98.62 -9.32, -107.51 -7.05, -119.8 -2.23" stroke="#000000" stroke-width="1" fill="none"></path></g><g transform="translate(535 509.6666531032986) rotate(0 -60.613521718280424 -1.156863112701103)"><path d="M-94.31 7.9 C-100.29 7.53, -108.33 2.64, -118.7 -3.23 M-93.33 8.89 C-99.14 5.85, -107.9 2.75, -119.8 -2.23" stroke="#000000" stroke-width="1" fill="none"></path></g></g><mask></mask><g stroke-linecap="round"><g transform="translate(183 463.6666531032986) rotate(0 53.77459650377743 0.6025313611514775)"><path d="M-0.23 0.47 C18.17 0.5, 91.21 0.27, 109.35 0.34 M-1.8 -0.32 C16.56 -0.17, 90.34 1.11, 108.59 1.53" stroke="#000000" stroke-width="1" fill="none"></path></g><g transform="translate(183 463.6666531032986) rotate(0 53.77459650377743 0.6025313611514775)"><path d="M81 11.82 C85.13 8.63, 92.1 7.1, 108.07 2 M80.95 11.79 C90.68 7.18, 100.15 4.51, 109.38 1.02" stroke="#000000" stroke-width="1" fill="none"></path></g><g transform="translate(183 463.6666531032986) rotate(0 53.77459650377743 0.6025313611514775)"><path d="M81.39 -8.69 C85.48 -7.52, 92.37 -4.68, 108.07 2 M81.35 -8.73 C90.99 -6.44, 100.33 -2.21, 109.38 1.02" stroke="#000000" stroke-width="1" fill="none"></path></g></g><mask></mask><g stroke-linecap="round"><g transform="translate(144 504.6666531032986) rotate(0 -39.1684462780226 0.47487382606931305)"><path d="M0.51 -0.97 C-12.64 -0.8, -64.79 -0.15, -77.94 0.19 M-0.68 1.14 C-14.07 1.59, -65.74 2.14, -78.85 1.83" stroke="#000000" stroke-width="1" fill="none"></path></g><g transform="translate(144 504.6666531032986) rotate(0 -39.1684462780226 0.47487382606931305)"><path d="M-52.24 -8.22 C-61.16 -4.97, -70.49 1.52, -80.82 3.34 M-50.72 -7.87 C-60.69 -5.96, -68.7 -0.86, -79.26 1.17" stroke="#000000" stroke-width="1" fill="none"></path></g><g transform="translate(144 504.6666531032986) rotate(0 -39.1684462780226 0.47487382606931305)"><path d="M-52.31 12.3 C-61.07 7.7, -70.37 6.35, -80.82 3.34 M-50.79 12.65 C-60.6 7.95, -68.59 6.44, -79.26 1.17" stroke="#000000" stroke-width="1" fill="none"></path></g></g><mask></mask><g stroke-linecap="round"><g transform="translate(568 463.6666531032986) rotate(0 40.03558139706962 0.38232528482396333)"><path d="M1.15 0.85 C14.62 0.94, 66.76 1.16, 79.78 1.14 M0.29 0.26 C13.76 -0.02, 66.18 -0.13, 79.24 -0.38" stroke="#000000" stroke-width="1" fill="none"></path></g><g transform="translate(568 463.6666531032986) rotate(0 40.03558139706962 0.38232528482396333)"><path d="M52.57 11.45 C58.97 8.1, 64.27 5.25, 78.27 -1.23 M50.76 11.09 C57.41 7.62, 62.53 4.88, 78.91 -0.58" stroke="#000000" stroke-width="1" fill="none"></path></g><g transform="translate(568 463.6666531032986) rotate(0 40.03558139706962 0.38232528482396333)"><path d="M52.38 -9.07 C58.93 -8.06, 64.26 -6.54, 78.27 -1.23 M50.57 -9.43 C57.06 -8.69, 62.22 -7.22, 78.91 -0.58" stroke="#000000" stroke-width="1" fill="none"></path></g></g><mask></mask><g transform="translate(671 464.6666531032986) rotate(0 8.21875 12.5)"><text x="0" y="0" font-family="Virgil, Segoe UI Emoji" font-size="20px" fill="#000000" text-anchor="start" style="white-space: pre;" direction="ltr" dominant-baseline="text-before-edge">...</text></g><g transform="translate(10 495.6666531032986) rotate(0 8.21875 12.5)"><text x="0" y="0" font-family="Virgil, Segoe UI Emoji" font-size="20px" fill="#000000" text-anchor="start" style="white-space: pre;" direction="ltr" dominant-baseline="text-before-edge">...</text></g></svg>